# xmcd CD database file
#
# Track frame offsets:
#	150
#	12132
#	21996
#	35873
#	47966
#	57941
#	70034
#	81626
#	94165
#	105311
#	115008
#	130111
#
# Disc length: 1910 seconds
#
# Revision: 0
# Processed by: cddbd v1.5.2PL0 Copyright (c) Steve Scherf et al.
# Submitted via: CDex 1.51
#
DISCID=9e07740c
DTITLE=Sleepy Eyes Nelson - Dirty With the Blues
DYEAR=2008
DGENRE=Blues
TTITLE0=Jesus is Coming
TTITLE1=Devil's Colour
TTITLE2=Gambler's Prayer
TTITLE3=Mornin' Train
TTITLE4=Pump Me Full of Whiskey
TTITLE5=When Time is Up for Me
TTITLE6=The Visit
TTITLE7=Where the Whiskey Flows
TTITLE8=I Saw Death
TTITLE9=Hell Chaser
TTITLE10=The Rule
TTITLE11=Sleepy's Marchin' In
EXTD=YEAR: 2008
EXTT0=
EXTT1=
EXTT2=
EXTT3=
EXTT4=
EXTT5=
EXTT6=
EXTT7=
EXTT8=
EXTT9=
EXTT10=
EXTT11=
PLAYORDER=
